ffmpeg version 3.4.8-0ubuntu0.2 Copyright (c) 2000-2020 the FFmpeg developers
  built with gcc 7 (Ubuntu 7.5.0-3ubuntu1~18.04)
  configuration: --prefix=/usr --extra-version=0ubuntu0.2 --toolchain=hardened --libdir=/usr/lib/x86_64-linux-gnu --incdir=/usr/include/x86_64-linux-gnu --enable-gpl --disable-stripping --enable-avresample --enable-avisynth --enable-gnutls --enable-ladspa --enable-libass --enable-libbluray --enable-libbs2b --enable-libcaca --enable-libcdio --enable-libflite --enable-libfontconfig --enable-libfreetype --enable-libfribidi --enable-libgme --enable-libgsm --enable-libmp3lame --enable-libmysofa --enable-libopenjpeg --enable-libopenmpt --enable-libopus --enable-libpulse --enable-librubberband --enable-librsvg --enable-libshine --enable-libsnappy --enable-libsoxr --enable-libspeex --enable-libssh --enable-libtheora --enable-libtwolame --enable-libvorbis --enable-libvpx --enable-libwavpack --enable-libwebp --enable-libx265 --enable-libxml2 --enable-libxvid --enable-libzmq --enable-libzvbi --enable-omx --enable-openal --enable-opengl --enable-sdl2 --enable-libdc1394 --enable-libdrm --enable-libiec61883 --enable-chromaprint --enable-frei0r --enable-libopencv --enable-libx264 --enable-shared
  libavutil      55. 78.100 / 55. 78.100
  libavcodec     57.107.100 / 57.107.100
  libavformat    57. 83.100 / 57. 83.100
  libavdevice    57. 10.100 / 57. 10.100
  libavfilter     6.107.100 /  6.107.100
  libavresample   3.  7.  0 /  3.  7.  0
  libswscale      4.  8.100 /  4.  8.100
  libswresample   2.  9.100 /  2.  9.100
  libpostproc    54.  7.100 / 54.  7.100
[rawvideo @ 0x556c84c27a20] Estimating duration from bitrate, this may be inaccurate
Input #0, rawvideo, from '../../SVC-Encoder-20220109T061506Z-001/SVC-Encoder/Dataset/RollerCoaster/6f_2x2/tile_yuv/f5_t0_480x480.yuv':
  Duration: 00:00:10.00, start: 0.000000, bitrate: 82944 kb/s
    Stream #0:0: Video: rawvideo (I420 / 0x30323449), yuv420p, 480x480, 82944 kb/s, 30 tbr, 30 tbn, 30 tbc
Stream mapping:
  Stream #0:0 -> #0:0 (rawvideo (native) -> h264 (libx264))
Press [q] to stop, [?] for help
[libx264 @ 0x556c84c34c60] using cpu capabilities: MMX2 SSE2Fast LZCNT SSSE3 SSE4.2 AVX
[libx264 @ 0x556c84c34c60] profile High, level 3.0
Output #0, rawvideo, to 'RollerCoaster_f5_t0_480x480_x264_QP_24.h264':
  Metadata:
    encoder         : Lavf57.83.100
    Stream #0:0: Video: h264 (libx264), yuv420p, 480x480, q=-1--1, 30 fps, 30 tbn, 30 tbc
    Metadata:
      encoder         : Lavc57.107.100 libx264
    Side data:
      cpb: bitrate max/min/avg: 0/0/0 buffer size: 0 vbv_delay: -1
frame=  257 fps=0.0 q=30.0 PSNR=Y:nan U:nan V:nan *:nan size=      79kB time=00:00:07.13 bitrate=  91.2kbits/s speed=14.2x    frame=  300 fps=0.0 q=30.0 LPSNR=Y:inf U:inf V:inf *:inf size=     108kB time=00:00:09.93 bitrate=  89.0kbits/s speed=15.2x    
video:108kB audio:0kB subtitle:0kB other streams:0kB global headers:0kB muxing overhead: 0.000000%
[libx264 @ 0x556c84c34c60] frame I:2     Avg QP:23.59  size:  4810  PSNR Mean Y:50.89 U:53.31 V:54.39 Avg:51.66 Global:51.59
[libx264 @ 0x556c84c34c60] frame P:96    Avg QP:24.70  size:   845  PSNR Mean Y:48.48 U:51.80 V:53.22 Avg:49.44 Global:49.28
[libx264 @ 0x556c84c34c60] frame B:202   Avg QP:29.59  size:    98  PSNR Mean Y:48.40 U:52.25 V:53.49 Avg:49.44 Global:49.37
[libx264 @ 0x556c84c34c60] consecutive B-frames:  7.0%  8.7%  3.0% 81.3%
[libx264 @ 0x556c84c34c60] mb I  I16..4: 62.2% 35.3%  2.5%
[libx264 @ 0x556c84c34c60] mb P  I16..4:  4.2%  2.0%  0.0%  P16..4:  7.6%  3.0%  1.4%  0.0%  0.0%    skip:81.8%
[libx264 @ 0x556c84c34c60] mb B  I16..4:  0.0%  0.0%  0.0%  B16..8:  4.5%  0.5%  0.0%  direct: 0.0%  skip:94.8%  L0:34.9% L1:57.5% BI: 7.6%
[libx264 @ 0x556c84c34c60] 8x8 transform intra:32.6% inter:46.4%
[libx264 @ 0x556c84c34c60] coded y,uvDC,uvAC intra: 4.6% 19.3% 1.8% inter: 1.2% 1.0% 0.0%
[libx264 @ 0x556c84c34c60] i16 v,h,dc,p: 42% 35% 12% 11%
[libx264 @ 0x556c84c34c60] i8 v,h,dc,ddl,ddr,vr,hd,vl,hu:  2%  4% 90%  1%  0%  1%  1%  0%  1%
[libx264 @ 0x556c84c34c60] i4 v,h,dc,ddl,ddr,vr,hd,vl,hu:  9% 18% 28%  7%  5%  7%  7%  5% 15%
[libx264 @ 0x556c84c34c60] i8c dc,h,v,p: 72% 19%  9%  1%
[libx264 @ 0x556c84c34c60] Weighted P-Frames: Y:0.0% UV:0.0%
[libx264 @ 0x556c84c34c60] ref P L0: 72.3% 15.3%  8.9%  3.5%
[libx264 @ 0x556c84c34c60] ref B L0: 80.6% 16.4%  3.0%
[libx264 @ 0x556c84c34c60] ref B L1: 86.4% 13.6%
[libx264 @ 0x556c84c34c60] PSNR Mean Y:48.444 U:52.113 V:53.412 Avg:49.454 Global:49.354 kb/s:88.41
